#!OML:ASF F:\VICON\USERDATA\INSTALL\rory3\rory3.ASF
:FULLY-SPECIFIED
:DEGREES
191
root 7.07815 17.7179 15.3692 150.626 -101.945 -147.958
lowerback 35.9603 1.73208 2.91176
upperback 7.07308 3.34625 7.71014
thorax -10.6356 1.10022 5.44291
lowerneck -13.6075 -3.04981 -1.98785
upperneck -2.63586 -3.96081 -8.69223
head 1.35361 -2.34956 -2.68379
rclavicle 2.22639e-014 -6.36111e-015
rhumerus -21.2474 -41.7686 -43.0778
rradius 70.9872
rwrist -19.9939
rhand 0.0403823 4.04189
rfingers 7.12502
rthumb 25.6291 -24.2533
lclavicle 2.22639e-014 -6.36111e-015
lhumerus -47.9514 5.39221 80.4029
lradius 49.3946
lwrist 11.9592
lhand -15.1017 51.8677
lfingers 7.12502
lthumb 11.0667 81.5559
rfemur -29.0822 2.58879 2.33806
rtibia 64.6882
rfoot -13.1922 -11.7147
rtoes 10.7904
lfemur -21.3929 5.93674 -26.9363
ltibia 47.6919
lfoot -11.2068 -4.45808
ltoes -27.4747
192
root 7.08517 17.7887 15.556 150.867 -101.964 -148.068
lowerback 35.7977 1.63943 2.7139
upperback 7.04837 3.15622 7.71058
thorax -10.6025 1.02259 5.62744
lowerneck -13.7693 -2.88171 -1.99518
upperneck -2.25137 -3.68767 -8.9751
head 1.51835 -2.23731 -2.77939
rclavicle -2.70347e-014 -3.18055e-014
rhumerus -21.0768 -40.475 -43.2112
rradius 72.3227
rwrist -19.2071
rhand -0.00347095 4.42419
rfingers 7.12502
rthumb 25.587 -23.877
lclavicle -2.70347e-014 -3.18055e-014
lhumerus -48.1208 6.228 79.8595
lradius 49.3843
lwrist 12.0459
lhand -15.3299 52.0546
lfingers 7.12502
lthumb 10.8466 81.7545
rfemur -29.8463 1.72936 4.19686
rtibia 65.2366
rfoot -13.6237 -10.6977
rtoes 10.5212
lfemur -21.8219 6.76301 -27.2159
ltibia 48.117
lfoot -9.16984 -6.71139
ltoes -25.5348
193
root 7.09228 17.8603 15.7429 151.028 -101.959 -148.09
lowerback 35.6929 1.48902 2.47346
upperback 7.03331 2.86865 7.6197
thorax -10.564 0.900095 5.77487
lowerneck -13.7612 -2.6644 -2.09039
upperneck -2.14651 -3.36892 -8.93661
head 1.56664 -2.07822 -2.73454
rclavicle -3.18055e-014 1.27222e-014
rhumerus -20.7262 -39.1702 -43.8874
rradius 73.8402
rwrist -18.2776
rhand 0.176827 4.26398
rfingers 7.12502
rthumb 25.7597 -24.0123
lclavicle -3.18055e-014 1.27222e-014
lhumerus -48.3243 6.73871 79.3179
lradius 49.5705
lwrist 12.4812
lhand -15.5956 52.3411
lfingers 7.12502
lthumb 10.5903 82.0543
rfemur -30.5513 1.03376 6.0814
rtibia 65.5487
rfoot -14.0984 -9.70413
rtoes 12.2397
lfemur -22.3325 7.78511 -27.4209
ltibia 48.6243
lfoot -6.86604 -9.23355
ltoes -23.4265
194
root 7.10107 17.9336 15.9298 152.532 -101.98 -149.324
lowerback 35.4883 1.31114 2.72103
upperback 6.95744 2.72521 7.49157
thorax -10.5327 0.834976 5.5609
lowerneck -13.8069 -2.60682 -2.17066
upperneck -1.96371 -3.25508 -8.76145
head 1.64292 -2.01947 -2.66004
rclavicle 4.77083e-015 4.13472e-014
rhumerus -20.9011 -38.5542 -44.6373
rradius 75.6938
rwrist -16.8693
rhand 0.398048 4.05855
rfingers 7.12502
rthumb 25.9716 -24.1869
lclavicle 4.77083e-015 4.13472e-014
lhumerus -48.3425 6.95373 78.896
lradius 49.7209
lwrist 12.9732
lhand -16.0966 52.5174
lfingers 7.12502
lthumb 10.1069 82.2546
rfemur -31.3392 0.145775 8.17357
rtibia 65.6381
rfoot -14.3869 -8.67253
rtoes 13.169
lfemur -23.1168 8.51124 -27.3167
ltibia 49.2352
lfoot -3.89066 -11.752
ltoes -19.8526
195
root 7.10379 18.0046 16.1197 154.687 -102.162 -151.072
lowerback 34.9896 1.00732 3.16904
upperback 6.84349 2.48046 7.28894
thorax -10.4081 0.72531 5.19781
lowerneck -13.6587 -2.48474 -1.8889
upperneck -1.81527 -3.11754 -8.86516
head 1.66862 -1.95177 -2.73792
rclavicle 1.59028e-015 4.45278e-014
rhumerus -21.4347 -37.5218 -44.9192
rradius 77.5815
rwrist -15.5612
rhand 0.229995 4.13815
rfingers 7.12502
rthumb 25.8106 -24.1308
lclavicle 1.59028e-015 4.45278e-014
lhumerus -48.4901 7.15479 78.4349
lradius 49.9652
lwrist 13.5183
lhand -16.4802 52.5673
lfingers 7.12502
lthumb 9.73685 82.3222
rfemur -32.2129 -1.08405 10.339
rtibia 65.5366
rfoot -14.2439 -7.60015
rtoes 9.06341
lfemur -23.9769 8.86072 -27.1051
ltibia 49.661
lfoot -0.31466 -14.0388
ltoes -17.2266
196
root 7.10252 18.0542 16.3133 157.343 -102.45 -153.422
lowerback 34.5095 0.556197 3.54036
upperback 6.72917 2.03307 7.2633
thorax -10.2974 0.521116 5.14688
lowerneck -13.4295 -2.25525 -2.02719
upperneck -1.61145 -2.77321 -8.86647
head 1.71127 -1.77718 -2.69291
rclavicle 2.06736e-014 -1.90833e-014
rhumerus -21.4655 -35.514 -45.7023
rradius 79.5171
rwrist -14.8563
rhand -0.922392 4.15061
rfingers 7.12502
rthumb 24.7066 -24.2741
lclavicle 2.06736e-014 -1.90833e-014
lhumerus -48.889 7.76264 78.0242
lradius 50.2491
lwrist 13.9089
lhand -16.5297 52.684
lfingers 7.12502
lthumb 9.68912 82.4412
rfemur -33.0302 -3.08029 12.9562
rtibia 65.1748
rfoot -12.383 -8.17212
rtoes -11.0169
lfemur -24.7363 8.6825 -26.6528
ltibia 50.0189
lfoot 3.73729 -15.8333
ltoes -15.0216
197
root 7.10112 18.1358 16.5017 159.083 -103.021 -154.946
lowerback 34.2609 0.11633 3.66432
upperback 6.5947 1.53172 7.26598
thorax -10.3112 0.296467 5.28005
lowerneck -13.5537 -2.04529 -2.38181
upperneck -1.08037 -2.37584 -8.7359
head 1.93047 -1.59113 -2.57797
rclavicle -3.18055e-015 -3.18055e-015
rhumerus -21.5379 -33.0894 -46.2915
rradius 81.4252
rwrist -14.1128
rhand -1.72284 4.25482
rfingers 7.12502
rthumb 23.9392 -24.2728
lclavicle -3.18055e-015 -3.18055e-015
lhumerus -49.218 8.11224 77.8129
lradius 50.5528
lwrist 14.4436
lhand -16.52 52.8802
lfingers 7.12502
lthumb 9.69851 82.6369
rfemur -33.4113 -3.68159 14.1604
rtibia 64.764
rfoot -13.4479 -3.80533
rtoes 2.69836
lfemur -25.2254 7.95676 -26.2907
ltibia 50.1157
lfoot 7.99063 -16.904
ltoes -13.4261
198
root 7.09057 18.1797 16.6707 160.066 -102.951 -155.597
lowerback 33.9625 0.188507 3.54648
upperback 6.47242 1.57505 7.07772
thorax -10.3306 0.331952 5.11976
lowerneck -13.6656 -1.91812 -1.95596
upperneck -0.541535 -2.19902 -8.72134
head 2.13823 -1.51414 -2.65527
rclavicle -1.59028e-015 5.08889e-014
rhumerus -22.4179 -31.0965 -46.7561
rradius 83.521
rwrist -13.2463
rhand -2.76049 4.4025
rfingers 7.12502
rthumb 22.9438 -24.2522
lclavicle -1.59028e-015 5.08889e-014
lhumerus -49.2751 7.49223 77.4855
lradius 50.767
lwrist 15.1618
lhand -16.4054 52.8223
lfingers 7.12502
lthumb 9.80907 82.5738
rfemur -34.0231 -4.13504 16.0143
rtibia 64.0605
rfoot -13.0775 -1.96315
rtoes -0.0838549
lfemur -25.8164 7.85236 -25.6621
ltibia 50.13
lfoot 11.64 -17.7748
ltoes -15.5025
199
root 7.08602 18.1844 16.8633 161.432 -103.288 -156.844
lowerback 33.8138 -0.0573361 3.88989
upperback 6.35487 1.37132 6.81613
thorax -10.3594 0.238069 4.7311
lowerneck -13.8686 -1.74335 -1.57874
upperneck 0.146113 -1.93529 -8.72712
head 2.41952 -1.39977 -2.73195
rclavicle 2.22639e-014 9.85972e-014
rhumerus -23.3398 -29.491 -47.4053
rradius 85.7425
rwrist -11.87
rhand -4.11056 4.53024
rfingers 7.12502
rthumb 21.6478 -24.2796
lclavicle 2.22639e-014 9.85972e-014
lhumerus -49.3364 6.89087 77.2008
lradius 51.0572
lwrist 15.7277
lhand -16.6073 52.6122
lfingers 7.12502
lthumb 9.61423 82.3729
rfemur -34.4148 -5.66364 18.2303
rtibia 63.0916
rfoot -12.3614 -2.12696
rtoes -17.9847
lfemur -26.2349 7.01967 -25.0154
ltibia 50.1216
lfoot 13.621 -18.5338
ltoes -21.1231
200
root 7.07463 18.2191 17.0316 159.979 -103.238 -155.24
lowerback 33.7135 0.151579 3.02663
upperback 6.29536 1.34794 6.77705
thorax -10.4234 0.258322 5.16116
lowerneck -13.7013 -1.68542 -1.23002
upperneck 0.305794 -1.89245 -9.08758
head 2.44446 -1.3907 -2.91767
rclavicle 3.18055e-015 -3.97569e-014
rhumerus -23.9468 -27.6804 -47.9186
rradius 87.8774
rwrist -10.1582
rhand -5.25681 4.47398
rfingers 7.12502
rthumb 20.5466 -24.4587
lclavicle 3.18055e-015 -3.97569e-014
lhumerus -49.6133 7.13939 77.0502
lradius 51.3184
lwrist 15.7888
lhand -16.2622 52.4417
lfingers 7.12502
lthumb 9.94723 82.1867
rfemur -34.5709 -5.48904 19.16
rtibia 62.0678
rfoot -12.3031 0.618312
rtoes -17.2729
lfemur -26.3377 6.71761 -24.7821
ltibia 50.0477
lfoot 13.7003 -19.6853
ltoes -16.9657
201
root 7.0655 18.2522 17.2105 158.94 -103.417 -154.145
lowerback 33.6418 0.200959 2.6662
upperback 6.24628 1.27599 6.55195
thorax -10.4483 0.242391 5.13877
lowerneck -13.541 -1.77753 -2.07816
upperneck 0.582344 -1.88124 -8.31794
head 2.51177 -1.36022 -2.49917
rclavicle 1.11319e-014 8.42847e-014
rhumerus -24.8956 -26.5145 -48.5099
rradius 90.0202
rwrist -7.86058
rhand -5.75932 4.83069
rfingers 7.12502
rthumb 20.0637 -24.1534
lclavicle 1.11319e-014 8.42847e-014
lhumerus -49.6817 6.9423 76.8639
lradius 51.6161
lwrist 15.9422
lhand -15.9266 52.1971
lfingers 7.12502
lthumb 10.271 81.9263
rfemur -34.5453 -5.51719 19.952
rtibia 60.9211
rfoot -11.8788 3.1661
rtoes -15.1588
lfemur -26.3322 6.06275 -24.517
ltibia 50.1076
lfoot 12.6588 -20.4428
ltoes -12.7809
202
root 7.0553 18.2736 17.401 158.284 -103.704 -153.484
lowerback 33.5478 0.172144 2.75798
upperback 6.21344 1.24238 6.19585
thorax -10.4228 0.231091 4.71539
lowerneck -13.6754 -1.8881 -2.04579
upperneck 1.04697 -1.98573 -8.1596
head 2.69277 -1.41858 -2.47207
rclavicle 3.18055e-015 -2.06736e-014
rhumerus -26.0493 -25.3136 -49.4818
rradius 92.3965
rwrist -6.32031
rhand -7.41082 4.55213
rfingers 7.12502
rthumb 18.4757 -24.5905
lclavicle 3.18055e-015 -2.06736e-014
lhumerus -49.5075 6.3084 76.7542
lradius 51.8395
lwrist 16.1819
lhand -15.931 51.7514
lfingers 7.12502
lthumb 10.2667 81.4808
rfemur -34.4571 -5.70639 20.6859
rtibia 59.747
rfoot -11.395 5.04149
rtoes -15.6538
lfemur -26.2702 5.30726 -24.1772
ltibia 50.2517
lfoot 6.41406 -18.7965
ltoes -28.2422
203
root 7.04868 18.2684 17.5947 157.12 -104 -152.409
lowerback 33.5473 0.169514 2.62535
upperback 6.1847 1.17392 5.90155
thorax -10.4407 0.20837 4.49516
lowerneck -13.5211 -1.85419 -1.84085
upperneck 1.31863 -1.94582 -8.26708
head 2.75818 -1.40288 -2.54635
rclavicle -3.18055e-014 -1.11319e-014
rhumerus -27.1236 -23.7959 -50.447
rradius 94.644
rwrist -4.28181
rhand -8.54455 4.82105
rfingers 7.12502
rthumb 17.3848 -24.4215
lclavicle -3.18055e-014 -1.11319e-014
lhumerus -49.3797 5.77982 76.7008
lradius 51.9946
lwrist 16.4923
lhand -15.7229 51.3041
lfingers 7.12502
lthumb 10.4675 81.0235
rfemur -34.1084 -5.76968 21.0984
rtibia 58.4657
rfoot -10.7494 6.5108
rtoes -13.7603
lfemur -26.1463 4.53456 -23.898
ltibia 50.5903
lfoot 2.94117 -16.3038
ltoes -30.3725
204
root 7.04142 18.2561 17.7856 156.35 -104.271 -151.678
lowerback 33.4366 0.149162 2.33628
upperback 6.19721 1.02738 5.69551
thorax -10.3749 0.152829 4.48294
lowerneck -13.7031 -1.66373 -1.68551
upperneck 1.82843 -1.65043 -8.40586
head 2.98068 -1.2767 -2.62099
rclavicle 3.97569e-014 -2.38542e-014
rhumerus -27.7726 -22.108 -51.4809
rradius 96.5955
rwrist -1.87787
rhand -9.24185 5.21061
rfingers 7.12502
rthumb 16.7136 -24.0899
lclavicle 3.97569e-014 -2.38542e-014
lhumerus -49.2916 5.43068 76.5826
lradius 52.2573
lwrist 16.7563
lhand -15.1748 51.1708
lfingers 7.12502
lthumb 10.9962 80.8628
rfemur -33.7878 -6.18941 21.6696
rtibia 57.0955
rfoot -10.2375 6.8461
rtoes -15.4172
lfemur -26.1451 3.8809 -23.4614
ltibia 50.9975
lfoot -1.42004 -12.343
ltoes -34.2548
